<svg width="157" height="47" viewBox="0 0 157 47" fill="none" xmlns="http://www.w3.org/2000/svg">
<path d="M151.086 0.931942C153.759 0.931942 155.967 3.1453 155.967 5.82464V40.7725C155.967 43.4518 153.759 45.6652 151.086 45.6652H5.81098C3.13793 45.6652 0.929757 43.4518 0.929757 40.7725V5.82464C0.929757 3.1453 3.13793 0.931942 5.81098 0.931942H151.086ZM151.086 0H5.81098C2.55683 0 0 2.67933 0 5.82464V40.7725C0 44.0343 2.55683 46.5971 5.81098 46.5971H151.086C154.34 46.5971 156.897 44.0343 156.897 40.7725V5.82464C156.897 2.67933 154.34 0 151.086 0Z" fill="white"/>
<path d="M34.4298 23.5741C34.3979 20.2377 37.5422 18.6161 37.6803 18.5416C35.8957 16.2676 33.1338 15.9508 32.1672 15.9228C29.8514 15.7085 27.5994 17.1437 26.4203 17.1437C25.22 17.1437 23.3929 15.9508 21.4383 15.9787C18.9207 16.016 16.5519 17.2928 15.2665 19.2871C12.6002 23.3411 14.5867 29.3055 17.1467 32.5859C18.4321 34.1889 19.9192 35.9875 21.8844 35.9223C23.7965 35.8571 24.5189 34.8506 26.824 34.8506C29.1185 34.8506 29.7877 35.9223 31.7847 35.885C33.8455 35.8571 35.1309 34.2728 36.3737 32.6512C37.8503 30.8153 38.4452 28.998 38.4664 28.9048C38.4133 28.8861 34.4723 27.5628 34.4298 23.5741Z" fill="#FEFEFE"/>
<path d="M30.6587 13.7701C31.6891 12.6424 32.3902 11.1047 32.199 9.53906C30.7118 9.59498 28.8423 10.443 27.7694 11.5521C26.824 12.5306 25.9741 14.1242 26.1866 15.6246C27.865 15.7365 29.5858 14.8791 30.6587 13.7701Z" fill="#FEFEFE"/>
<path d="M62.1761 35.6893H59.4992L58.0333 31.6447H52.9344L51.5429 35.6893H48.9403L53.9861 21.9246H57.1091L62.1761 35.6893ZM57.5978 29.9486L56.2699 26.3606C56.1318 25.9878 55.8663 25.1304 55.4839 23.7698H55.4307C55.2714 24.3569 55.0271 25.2236 54.6872 26.3606L53.3806 29.9486H57.5978Z" fill="#FEFEFE"/>
<path d="M75.1464 30.6102C75.1464 32.297 74.6259 33.6297 73.5742 34.6082C72.6395 35.4843 71.471 35.913 70.09 35.913C68.5922 35.913 67.5193 35.447 66.8607 34.5057V39.7153H64.3432V29.0259C64.3432 27.9635 64.3113 26.8824 64.2476 25.7641H66.4571L66.5952 27.3391H66.6377C67.4768 26.1555 68.7516 25.5591 70.4512 25.5591C71.7896 25.5591 72.8944 26.0251 73.7867 26.9477C74.7002 27.8796 75.1464 29.0911 75.1464 30.6102ZM72.5863 30.6848C72.5863 29.7155 72.342 28.9234 71.8428 28.299C71.301 27.6466 70.568 27.3205 69.6545 27.3205C69.0384 27.3205 68.4754 27.5068 67.9655 27.861C67.4662 28.2244 67.1263 28.6904 66.9776 29.2775C66.9032 29.5478 66.8607 29.7715 66.8607 29.9485V31.6074C66.8607 32.325 67.1157 32.9401 67.6149 33.434C68.1142 33.9279 68.7728 34.1795 69.5801 34.1795C70.5255 34.1795 71.2585 33.8534 71.7896 33.2196C72.3208 32.5766 72.5863 31.7379 72.5863 30.6848Z" fill="#FEFEFE"/>
<path d="M88.1485 30.6102C88.1485 32.297 87.628 33.6297 86.5763 34.6082C85.6415 35.4843 84.473 35.913 83.0921 35.913C81.5943 35.913 80.5214 35.447 79.8628 34.5057V39.7153H77.3452V29.0259C77.3452 27.9635 77.3134 26.8824 77.2496 25.7641H79.4591L79.5972 27.3391H79.6397C80.4789 26.1555 81.7536 25.5591 83.4533 25.5591C84.7917 25.5591 85.8965 26.0251 86.7888 26.9477C87.7023 27.8796 88.1485 29.0911 88.1485 30.6102ZM85.5884 30.6848C85.5884 29.7155 85.3441 28.9234 84.8448 28.299C84.3031 27.6466 83.5701 27.3205 82.6566 27.3205C82.0404 27.3205 81.4774 27.5068 80.9676 27.861C80.4683 28.2244 80.139 28.6904 79.9797 29.2775C79.9053 29.5478 79.8628 29.7715 79.8628 29.9485V31.6074C79.8628 32.325 80.1178 32.9401 80.617 33.434C81.1163 33.9279 81.7749 34.1795 82.5822 34.1795C83.5276 34.1795 84.2712 33.8534 84.7917 33.2196C85.3335 32.5766 85.5884 31.7379 85.5884 30.6848Z" fill="#FEFEFE"/>
<path d="M102.702 31.8311C102.702 33.0054 102.234 33.956 101.31 34.6922C100.29 35.4937 98.8668 35.8944 97.0397 35.8944C95.3507 35.8944 94.0016 35.6055 92.9818 35.037L93.5661 33.2011C94.6708 33.7696 95.8818 34.0585 97.199 34.0585C98.1444 34.0585 98.888 33.8721 99.4085 33.4993C99.9396 33.1265 100.205 32.6233 100.205 31.9989C100.205 31.4397 99.9821 30.9737 99.5572 30.5916C99.1217 30.2096 98.3994 29.8554 97.3902 29.5292C94.6177 28.6253 93.2474 27.3112 93.2474 25.5871C93.2474 24.4595 93.736 23.5368 94.7027 22.8099C95.6693 22.0923 96.9547 21.7289 98.5587 21.7289C99.9821 21.7289 101.172 21.9432 102.117 22.3812L101.48 24.1706C100.588 23.7512 99.5891 23.5368 98.4631 23.5368C97.5814 23.5368 96.8803 23.7326 96.3811 24.1053C95.9668 24.4502 95.7543 24.8602 95.7543 25.3541C95.7543 25.8947 95.9986 26.3513 96.4767 26.6961C96.8909 27.0223 97.6558 27.3764 98.7605 27.7585C100.11 28.2338 101.098 28.793 101.735 29.436C102.383 30.0791 102.702 30.8806 102.702 31.8311Z" fill="#FEFEFE"/>
<path d="M111.03 27.4231H108.257V32.2412C108.257 33.462 108.746 34.0771 109.723 34.0771C110.169 34.0771 110.541 34.0398 110.839 33.9746L110.913 35.6521C110.414 35.8105 109.766 35.8944 108.958 35.8944C107.96 35.8944 107.195 35.6241 106.632 35.0929C106.069 34.5617 105.793 33.6671 105.793 32.4183V27.4137H104.146V25.7642H105.793V23.9469L108.257 23.2946V25.7642H111.03V27.4231Z" fill="#FEFEFE"/>
<path d="M123.501 30.6476C123.501 32.1759 123.001 33.4248 122.014 34.4033C120.972 35.4098 119.592 35.913 117.871 35.913C116.214 35.913 114.886 35.4284 113.898 34.4685C112.91 33.5086 112.421 32.2878 112.421 30.8153C112.421 29.2776 112.931 28.0195 113.94 27.0409C114.96 26.0624 116.33 25.5685 118.051 25.5685C119.708 25.5685 121.047 26.0531 122.056 27.0223C123.023 27.9543 123.501 29.1658 123.501 30.6476ZM120.898 30.6942C120.898 29.7809 120.675 29.0073 120.229 28.355C119.698 27.5628 118.944 27.1714 117.966 27.1714C116.957 27.1714 116.182 27.5628 115.661 28.355C115.204 29.0073 114.992 29.7995 114.992 30.7408C114.992 31.6541 115.215 32.4369 115.661 33.0799C116.203 33.8721 116.968 34.2635 117.945 34.2635C118.901 34.2635 119.655 33.8628 120.208 33.0613C120.664 32.3903 120.898 31.6075 120.898 30.6942Z" fill="#FEFEFE"/>
<path d="M131.68 27.7025C131.436 27.6653 131.17 27.6466 130.883 27.6466C130.002 27.6466 129.311 27.9355 128.833 28.5227C128.419 29.0352 128.207 29.6969 128.207 30.4797V35.6893H125.689V28.8861C125.689 27.7398 125.668 26.6961 125.615 25.7641H127.803L127.898 27.6653H127.973C128.238 27.0129 128.653 26.4817 129.226 26.0903C129.789 25.7362 130.395 25.5591 131.043 25.5591C131.276 25.5591 131.489 25.5777 131.67 25.5964L131.68 27.7025Z" fill="#FEFEFE"/>
<path d="M142.919 30.2561C142.919 30.6475 142.887 30.983 142.823 31.2533H135.281C135.313 32.2318 135.674 32.9867 136.375 33.4992C137.013 33.9559 137.831 34.1889 138.84 34.1889C139.955 34.1889 140.975 34.0304 141.889 33.7229L142.282 35.2513C141.209 35.6613 139.945 35.8664 138.489 35.8664C136.737 35.8664 135.356 35.4097 134.357 34.5057C133.359 33.6017 132.859 32.3809 132.859 30.8618C132.859 29.3707 133.327 28.1219 134.261 27.1247C135.239 26.0623 136.556 25.5311 138.213 25.5311C139.838 25.5311 141.081 26.0623 141.91 27.1247C142.579 27.9821 142.919 29.0166 142.919 30.2561ZM140.518 29.6876C140.539 29.0352 140.369 28.4667 140.03 27.9915C139.594 27.3764 138.925 27.0688 138.032 27.0688C137.215 27.0688 136.545 27.3671 136.035 27.9635C135.621 28.4388 135.366 29.0166 135.292 29.6783L140.518 29.6876Z" fill="#FEFEFE"/>
<path d="M50.4399 14.2627L50.7524 13.877C51.104 13.4212 51.3042 12.7376 51.353 11.8262L51.436 9.7168H54.8394V14.2627H55.5181V16.5527H54.6147V15H50.9282V16.5527H50.0249L50.0298 14.2627H50.4399ZM51.5093 14.2627H53.936V10.5518H52.3101L52.2563 11.8115C52.201 12.863 51.952 13.68 51.5093 14.2627Z" fill="white"/>
<path d="M56.2798 12.3096C56.2798 11.792 56.3807 11.3265 56.5825 10.9131C56.7876 10.4997 57.0708 10.1807 57.4321 9.95605C57.7967 9.73145 58.2118 9.61914 58.6772 9.61914C59.3966 9.61914 59.9777 9.86816 60.4204 10.3662C60.8664 10.8643 61.0894 11.5267 61.0894 12.3535V12.417C61.0894 12.9313 60.9901 13.3936 60.7915 13.8037C60.5962 14.2106 60.3146 14.528 59.9468 14.7559C59.5822 14.9837 59.1623 15.0977 58.687 15.0977C57.9709 15.0977 57.3898 14.8486 56.9438 14.3506C56.5011 13.8525 56.2798 13.1934 56.2798 12.373V12.3096ZM57.188 12.417C57.188 13.0029 57.3231 13.4733 57.5933 13.8281C57.8667 14.1829 58.2313 14.3604 58.687 14.3604C59.146 14.3604 59.5106 14.1813 59.7808 13.8232C60.0509 13.4619 60.186 12.9574 60.186 12.3096C60.186 11.7301 60.0477 11.2614 59.771 10.9033C59.4976 10.542 59.133 10.3613 58.6772 10.3613C58.2313 10.3613 57.8716 10.5387 57.5981 10.8936C57.3247 11.2484 57.188 11.7562 57.188 12.417Z" fill="white"/>
<path d="M64.3413 14.3604C64.6636 14.3604 64.9451 14.2627 65.186 14.0674C65.4269 13.8721 65.5604 13.6279 65.5864 13.335H66.4409C66.4246 13.6377 66.3205 13.9258 66.1284 14.1992C65.9364 14.4727 65.6792 14.6908 65.3569 14.8535C65.0379 15.0163 64.6994 15.0977 64.3413 15.0977C63.6219 15.0977 63.049 14.8584 62.6226 14.3799C62.1994 13.8981 61.9878 13.2406 61.9878 12.4072V12.2559C61.9878 11.7415 62.0822 11.2842 62.271 10.8838C62.4598 10.4834 62.73 10.1725 63.0815 9.95117C63.4364 9.72982 63.8547 9.61914 64.3364 9.61914C64.9289 9.61914 65.4204 9.79655 65.811 10.1514C66.2049 10.5062 66.4149 10.9668 66.4409 11.5332H65.5864C65.5604 11.1914 65.4302 10.9115 65.1958 10.6934C64.9647 10.472 64.6782 10.3613 64.3364 10.3613C63.8774 10.3613 63.521 10.5273 63.2671 10.8594C63.0164 11.1882 62.8911 11.665 62.8911 12.29V12.4609C62.8911 13.0697 63.0164 13.5384 63.2671 13.8672C63.5177 14.196 63.8758 14.3604 64.3413 14.3604Z" fill="white"/>
<path d="M71.3823 10.4492H69.6099V15H68.7065V10.4492H66.9683V9.7168H71.3823V10.4492Z" fill="white"/>
<path d="M74.0483 13.6768L75.2788 9.7168H76.2456L74.1216 15.8154C73.7928 16.6943 73.2703 17.1338 72.5542 17.1338L72.3833 17.1191L72.0464 17.0557V16.3232L72.2905 16.3428C72.5965 16.3428 72.8341 16.2809 73.0034 16.1572C73.1759 16.0335 73.3175 15.8073 73.4282 15.4785L73.6284 14.9414L71.7437 9.7168H72.73L74.0483 13.6768Z" fill="white"/>
<path d="M81.3774 15H80.4741V10.4639H78.0425V15H77.1343V9.7168H81.3774V15Z" fill="white"/>
<path d="M87.144 15H86.2407V12.7441H83.814V15H82.9058V9.7168H83.814V12.0068H86.2407V9.7168H87.144V15Z" fill="white"/>
<path d="M88.3599 12.3096C88.3599 11.792 88.4608 11.3265 88.6626 10.9131C88.8677 10.4997 89.1509 10.1807 89.5122 9.95605C89.8768 9.73145 90.2918 9.61914 90.7573 9.61914C91.4767 9.61914 92.0578 9.86816 92.5005 10.3662C92.9465 10.8643 93.1694 11.5267 93.1694 12.3535V12.417C93.1694 12.9313 93.0701 13.3936 92.8716 13.8037C92.6763 14.2106 92.3947 14.528 92.0269 14.7559C91.6623 14.9837 91.2424 15.0977 90.7671 15.0977C90.0509 15.0977 89.4699 14.8486 89.0239 14.3506C88.5812 13.8525 88.3599 13.1934 88.3599 12.373V12.3096ZM89.2681 12.417C89.2681 13.0029 89.4032 13.4733 89.6733 13.8281C89.9468 14.1829 90.3114 14.3604 90.7671 14.3604C91.2261 14.3604 91.5907 14.1813 91.8608 13.8232C92.131 13.4619 92.2661 12.9574 92.2661 12.3096C92.2661 11.7301 92.1278 11.2614 91.8511 10.9033C91.5776 10.542 91.2131 10.3613 90.7573 10.3613C90.3114 10.3613 89.9517 10.5387 89.6782 10.8936C89.4048 11.2484 89.2681 11.7562 89.2681 12.417Z" fill="white"/>
<path d="M96.8657 15V9.7168H98.9263C99.6294 9.7168 100.168 9.84049 100.542 10.0879C100.92 10.332 101.109 10.6917 101.109 11.167C101.109 11.4111 101.036 11.6325 100.889 11.8311C100.743 12.0264 100.526 12.1761 100.24 12.2803C100.559 12.3551 100.814 12.5016 101.006 12.7197C101.202 12.9378 101.299 13.1982 101.299 13.501C101.299 13.986 101.12 14.3571 100.762 14.6143C100.407 14.8714 99.9045 15 99.2534 15H96.8657ZM97.769 12.6807V14.2725H99.2632C99.6408 14.2725 99.9224 14.2025 100.108 14.0625C100.297 13.9225 100.391 13.7256 100.391 13.4717C100.391 12.9443 100.004 12.6807 99.229 12.6807H97.769ZM97.769 11.958H98.936C99.7824 11.958 100.206 11.7106 100.206 11.2158C100.206 10.721 99.8052 10.4655 99.0044 10.4492H97.769V11.958Z" fill="white"/>
</svg>
