<svg width="157" height="47" viewBox="0 0 157 47" fill="none" xmlns="http://www.w3.org/2000/svg">
<path d="M151.086 0.931942C153.759 0.931942 155.967 3.1453 155.967 5.82464V40.7725C155.967 43.4518 153.759 45.6652 151.086 45.6652H5.81098C3.13793 45.6652 0.929757 43.4518 0.929757 40.7725V5.82464C0.929757 3.1453 3.13793 0.931942 5.81098 0.931942H151.086ZM151.086 0H5.81098C2.55683 0 0 2.67933 0 5.82464V40.7725C0 44.0343 2.55683 46.5971 5.81098 46.5971H151.086C154.34 46.5971 156.897 44.0343 156.897 40.7725V5.82464C156.897 2.67933 154.34 0 151.086 0Z" fill="white"/>
<path d="M79.2139 25.4677C76.4195 25.4677 74.2073 27.5408 74.2073 30.4202C74.2073 33.1844 76.4195 35.3727 79.2139 35.3727C82.0083 35.3727 84.2205 33.2996 84.2205 30.4202C84.2205 27.4257 82.0083 25.4677 79.2139 25.4677ZM79.2139 33.2996C77.7003 33.2996 76.4195 32.0327 76.4195 30.305C76.4195 28.5774 77.7003 27.3105 79.2139 27.3105C80.7275 27.3105 82.0083 28.4622 82.0083 30.305C82.0083 32.0327 80.7275 33.2996 79.2139 33.2996ZM68.3856 25.4677C65.5912 25.4677 63.3789 27.5408 63.3789 30.4202C63.3789 33.1844 65.5912 35.3727 68.3856 35.3727C71.18 35.3727 73.3922 33.2996 73.3922 30.4202C73.3922 27.4257 71.18 25.4677 68.3856 25.4677ZM68.3856 33.2996C66.8719 33.2996 65.5912 32.0327 65.5912 30.305C65.5912 28.5774 66.8719 27.3105 68.3856 27.3105C69.8992 27.3105 71.18 28.4622 71.18 30.305C71.18 32.0327 69.8992 33.2996 68.3856 33.2996ZM55.4615 26.965V29.0381H60.4681C60.3517 30.1899 59.8859 31.1113 59.3038 31.6871C58.6052 32.3782 57.4408 33.1844 55.4615 33.1844C52.3178 33.1844 49.9891 30.7657 49.9891 27.656C49.9891 24.5463 52.4342 22.1276 55.4615 22.1276C57.0915 22.1276 58.3723 22.8186 59.3038 23.6249L60.8174 22.1276C59.5366 20.9758 57.9066 20.0544 55.5779 20.0544C51.3863 20.0544 47.7769 23.5097 47.7769 27.656C47.7769 31.8023 51.3863 35.2576 55.5779 35.2576C57.9066 35.2576 59.5366 34.5665 60.9338 33.0692C62.331 31.6871 62.7968 29.7292 62.7968 28.2319C62.7968 27.7712 62.7968 27.3105 62.6803 26.965H55.4615ZM108.322 28.5774C107.857 27.4257 106.692 25.4677 104.131 25.4677C101.569 25.4677 99.4733 27.4257 99.4733 30.4202C99.4733 33.1844 101.569 35.3727 104.364 35.3727C106.576 35.3727 107.973 33.9906 108.439 33.1844L106.809 32.0327C106.226 32.8389 105.528 33.4148 104.364 33.4148C103.199 33.4148 102.501 32.9541 101.918 31.9175L108.555 29.1533L108.322 28.5774ZM101.569 30.1899C101.569 28.3471 103.083 27.3105 104.131 27.3105C104.946 27.3105 105.761 27.7712 105.994 28.3471L101.569 30.1899ZM96.0967 34.912H98.309V20.5151H96.0967V34.912ZM92.6037 26.5043C92.0216 25.9284 91.0901 25.3525 89.9258 25.3525C87.4807 25.3525 85.152 27.5408 85.152 30.305C85.152 33.0692 87.3642 35.1424 89.9258 35.1424C91.0901 35.1424 92.0216 34.5665 92.4873 33.9906H92.6037V34.6817C92.6037 36.5245 91.5558 37.5611 89.9258 37.5611C88.645 37.5611 87.7135 36.6397 87.4807 35.8334L85.6177 36.6397C86.1999 37.9066 87.5971 39.5191 90.0422 39.5191C92.6037 39.5191 94.6996 38.0218 94.6996 34.4513V25.698H92.6037V26.5043ZM90.0422 33.2996C88.5286 33.2996 87.2478 32.0327 87.2478 30.305C87.2478 28.5774 88.5286 27.3105 90.0422 27.3105C91.5558 27.3105 92.7202 28.5774 92.7202 30.305C92.7202 32.0327 91.5558 33.2996 90.0422 33.2996ZM118.452 20.5151H113.212V34.912H115.425V29.4988H118.452C120.897 29.4988 123.226 27.7712 123.226 25.007C123.226 22.2428 120.897 20.5151 118.452 20.5151ZM118.568 27.4257H115.425V22.4731H118.568C120.198 22.4731 121.13 23.8552 121.13 24.8918C121.014 26.1587 120.082 27.4257 118.568 27.4257ZM131.958 25.3525C130.328 25.3525 128.698 26.0436 128.116 27.5408L130.095 28.3471C130.561 27.5408 131.26 27.3105 132.075 27.3105C133.239 27.3105 134.287 28.0015 134.403 29.1533V29.2685C134.054 29.0381 133.123 28.6926 132.191 28.6926C130.095 28.6926 128 29.8443 128 31.9175C128 33.8755 129.746 35.1424 131.609 35.1424C133.123 35.1424 133.821 34.4513 134.403 33.7603H134.52V34.912H136.616V29.3836C136.383 26.8498 134.403 25.3525 131.958 25.3525ZM131.725 33.2996C131.027 33.2996 129.979 32.9541 129.979 32.0327C129.979 30.8809 131.26 30.5354 132.308 30.5354C133.239 30.5354 133.705 30.7657 134.287 30.9961C134.054 32.3782 132.89 33.2996 131.725 33.2996ZM143.951 25.698L141.506 31.9175H141.389L138.828 25.698H136.499L140.341 34.4513L138.129 39.2887H140.341L146.28 25.698H143.951ZM124.39 34.912H126.602V20.5151H124.39V34.912Z" fill="white"/>
<path d="M29.0118 21.9441L16.2162 9.4551L32.4963 18.5524L29.0118 21.9441ZM12.8767 8.72144C12.1229 9.10516 11.6185 9.80497 11.6185 10.7135V35.6185C11.6185 36.5271 12.1229 37.2269 12.8767 37.6107L27.7537 23.1632L12.8767 8.72144ZM37.5287 21.4533L34.1138 19.5288L30.3047 23.1688L34.1138 26.8088L37.5983 24.8844C38.642 24.0774 38.642 22.2602 37.5287 21.4533ZM16.2162 36.8825L32.4963 27.7852L29.0118 24.3934L16.2162 36.8825Z" fill="white"/>
<path d="M51.3657 11.291C51.3657 11.0436 51.2713 10.8483 51.0825 10.7051C50.8937 10.5586 50.6349 10.4854 50.3062 10.4854C49.9871 10.4854 49.7202 10.5684 49.5054 10.7344C49.2938 10.9004 49.188 11.0957 49.188 11.3203H48.2896C48.2896 10.8613 48.4816 10.4854 48.8657 10.1924C49.2498 9.89941 49.73 9.75293 50.3062 9.75293C50.9246 9.75293 51.4064 9.88639 51.7515 10.1533C52.0965 10.417 52.269 10.7946 52.269 11.2861C52.269 11.5238 52.1974 11.7419 52.0542 11.9404C51.911 12.139 51.7075 12.2969 51.4438 12.4141C52.0591 12.6224 52.3667 13.0326 52.3667 13.6445C52.3667 14.1296 52.1795 14.5137 51.8052 14.7969C51.4308 15.0801 50.9312 15.2217 50.3062 15.2217C49.6974 15.2217 49.1945 15.0736 48.7974 14.7773C48.4035 14.4779 48.2065 14.0742 48.2065 13.5664H49.105C49.105 13.8236 49.2189 14.0449 49.4468 14.2305C49.6779 14.4128 49.9644 14.5039 50.3062 14.5039C50.6512 14.5039 50.9295 14.4242 51.1411 14.2646C51.3527 14.1051 51.4585 13.8984 51.4585 13.6445C51.4585 13.3483 51.369 13.1367 51.1899 13.0098C51.0142 12.8796 50.7391 12.8145 50.3647 12.8145H49.4614V12.0527H50.4429C51.0581 12.0365 51.3657 11.7826 51.3657 11.291Z" fill="white"/>
<path d="M56.8003 15.1289C56.7482 15.0247 56.7059 14.8392 56.6733 14.5723C56.2534 15.0085 55.7521 15.2266 55.1694 15.2266C54.6486 15.2266 54.2205 15.0801 53.8853 14.7871C53.5532 14.4909 53.3872 14.1165 53.3872 13.6641C53.3872 13.1139 53.5955 12.6875 54.0122 12.3848C54.4321 12.0788 55.0213 11.9258 55.7798 11.9258H56.6587V11.5107C56.6587 11.195 56.5643 10.9443 56.3755 10.7588C56.1867 10.57 55.9084 10.4756 55.5405 10.4756C55.2183 10.4756 54.9481 10.557 54.73 10.7197C54.5119 10.8825 54.4028 11.0794 54.4028 11.3105H53.4946C53.4946 11.0469 53.5874 10.793 53.7729 10.5488C53.9618 10.3014 54.2157 10.1061 54.5347 9.96289C54.8569 9.81966 55.2101 9.74805 55.5942 9.74805C56.203 9.74805 56.6799 9.90104 57.0249 10.207C57.37 10.5098 57.549 10.9281 57.562 11.4619V13.8936C57.562 14.3786 57.6239 14.7643 57.7476 15.0508V15.1289H56.8003ZM55.3013 14.4404C55.5845 14.4404 55.853 14.3672 56.1069 14.2207C56.3608 14.0742 56.5448 13.8838 56.6587 13.6494V12.5654H55.9507C54.8439 12.5654 54.2905 12.8893 54.2905 13.5371C54.2905 13.8203 54.3849 14.0417 54.5737 14.2012C54.7625 14.3607 55.005 14.4404 55.3013 14.4404Z" fill="white"/>
<path d="M62.3911 10.5928H59.9546V15.1289H59.0464V9.8457H62.3911V10.5928Z" fill="white"/>
<path d="M67.6401 12.5459C67.6401 13.3499 67.4562 13.9977 67.0884 14.4893C66.7205 14.9808 66.2225 15.2266 65.5942 15.2266C64.953 15.2266 64.4484 15.0231 64.0806 14.6162V17.1602H63.1772V9.8457H64.0024L64.0464 10.4316C64.4142 9.97591 64.9253 9.74805 65.5796 9.74805C66.2144 9.74805 66.7157 9.9873 67.0835 10.4658C67.4546 10.9443 67.6401 11.61 67.6401 12.4629V12.5459ZM66.7368 12.4434C66.7368 11.8477 66.6099 11.3773 66.356 11.0322C66.1021 10.6872 65.7537 10.5146 65.311 10.5146C64.7642 10.5146 64.354 10.7572 64.0806 11.2422V13.7666C64.3507 14.2484 64.7642 14.4893 65.3208 14.4893C65.7537 14.4893 66.0972 14.3184 66.3511 13.9766C66.6082 13.6315 66.7368 13.1204 66.7368 12.4434Z" fill="white"/>
<path d="M70.4624 13.8057L71.6929 9.8457H72.6597L70.5356 15.9443C70.2069 16.8232 69.6844 17.2627 68.9683 17.2627L68.7974 17.248L68.4604 17.1846V16.4521L68.7046 16.4717C69.0106 16.4717 69.2482 16.4098 69.4175 16.2861C69.59 16.1624 69.7316 15.9362 69.8423 15.6074L70.0425 15.0703L68.1577 9.8457H69.144L70.4624 13.8057Z" fill="white"/>
<path d="M76.3755 11.291C76.3755 11.0436 76.2811 10.8483 76.0923 10.7051C75.9035 10.5586 75.6447 10.4854 75.3159 10.4854C74.9969 10.4854 74.73 10.5684 74.5151 10.7344C74.3035 10.9004 74.1978 11.0957 74.1978 11.3203H73.2993C73.2993 10.8613 73.4914 10.4854 73.8755 10.1924C74.2596 9.89941 74.7397 9.75293 75.3159 9.75293C75.9344 9.75293 76.4162 9.88639 76.7612 10.1533C77.1063 10.417 77.2788 10.7946 77.2788 11.2861C77.2788 11.5238 77.2072 11.7419 77.064 11.9404C76.9207 12.139 76.7173 12.2969 76.4536 12.4141C77.0688 12.6224 77.3765 13.0326 77.3765 13.6445C77.3765 14.1296 77.1893 14.5137 76.8149 14.7969C76.4406 15.0801 75.9409 15.2217 75.3159 15.2217C74.7072 15.2217 74.2043 15.0736 73.8071 14.7773C73.4132 14.4779 73.2163 14.0742 73.2163 13.5664H74.1147C74.1147 13.8236 74.2287 14.0449 74.4565 14.2305C74.6877 14.4128 74.9741 14.5039 75.3159 14.5039C75.661 14.5039 75.9393 14.4242 76.1509 14.2646C76.3625 14.1051 76.4683 13.8984 76.4683 13.6445C76.4683 13.3483 76.3787 13.1367 76.1997 13.0098C76.0239 12.8796 75.7489 12.8145 75.3745 12.8145H74.4712V12.0527H75.4526C76.0679 12.0365 76.3755 11.7826 76.3755 11.291Z" fill="white"/>
<path d="M81.9663 9.8457H82.8696V15.1289H81.9663V11.2764L79.5298 15.1289H78.6265V9.8457H79.5298V13.7031L81.9663 9.8457Z" fill="white"/>
<path d="M88.2456 10.5781H86.4731V15.1289H85.5698V10.5781H83.8315V9.8457H88.2456V10.5781Z" fill="white"/>
<path d="M90.9263 15.2266C90.2101 15.2266 89.6274 14.9922 89.1782 14.5234C88.729 14.0514 88.5044 13.4215 88.5044 12.6338V12.4678C88.5044 11.9437 88.6037 11.4766 88.8022 11.0664C89.0041 10.653 89.284 10.3307 89.6421 10.0996C90.0034 9.86523 90.394 9.74805 90.814 9.74805C91.5008 9.74805 92.0347 9.97428 92.4155 10.4268C92.7964 10.8792 92.9868 11.527 92.9868 12.3701V12.7461H89.4077C89.4207 13.2669 89.5721 13.6885 89.8618 14.0107C90.1548 14.3298 90.5259 14.4893 90.9751 14.4893C91.2941 14.4893 91.5643 14.4242 91.7856 14.2939C92.007 14.1637 92.2007 13.9912 92.3667 13.7764L92.9185 14.2061C92.4757 14.8864 91.8117 15.2266 90.9263 15.2266ZM90.814 10.4902C90.4494 10.4902 90.1434 10.6237 89.896 10.8906C89.6486 11.1543 89.4956 11.5254 89.437 12.0039H92.0835V11.9355C92.0575 11.4766 91.9338 11.1217 91.7124 10.8711C91.491 10.6172 91.1916 10.4902 90.814 10.4902Z" fill="white"/>
<path d="M96.6001 15.1289V9.8457H98.6606C99.3638 9.8457 99.9025 9.9694 100.277 10.2168C100.654 10.4609 100.843 10.8206 100.843 11.2959C100.843 11.54 100.77 11.7614 100.624 11.96C100.477 12.1553 100.261 12.305 99.9741 12.4092C100.293 12.484 100.549 12.6305 100.741 12.8486C100.936 13.0667 101.034 13.3271 101.034 13.6299C101.034 14.1149 100.855 14.486 100.497 14.7432C100.142 15.0003 99.6388 15.1289 98.9878 15.1289H96.6001ZM97.5034 12.8096V14.4014H98.9976C99.3752 14.4014 99.6567 14.3314 99.8423 14.1914C100.031 14.0514 100.125 13.8545 100.125 13.6006C100.125 13.0732 99.7381 12.8096 98.9634 12.8096H97.5034ZM97.5034 12.0869H98.6704C99.5168 12.0869 99.9399 11.8395 99.9399 11.3447C99.9399 10.8499 99.5396 10.5944 98.7388 10.5781H97.5034V12.0869Z" fill="white"/>
</svg>
