<svg width="17" height="17" viewBox="0 0 17 17" fill="none" xmlns="http://www.w3.org/2000/svg">
<path d="M16.5322 14.2798L12.6323 10.3798C12.0512 11.2834 11.2822 12.052 10.3784 12.6331L14.2787 16.5332C14.9013 17.1557 15.9108 17.1557 16.5321 16.5332C17.1548 15.9117 17.1548 14.9022 16.5322 14.2798Z" fill="white"/>
<path d="M12.7494 6.37449C12.7494 2.85427 9.89517 0 6.37474 0C2.85438 0 0 2.85427 0 6.37449C0 9.89471 2.85438 12.7488 6.37474 12.7488C9.89517 12.7488 12.7494 9.89471 12.7494 6.37449ZM6.37474 11.1552C3.73831 11.1552 1.59373 9.01085 1.59373 6.37452C1.59373 3.7382 3.73831 1.5937 6.37474 1.5937C9.0111 1.5937 11.1559 3.7382 11.1559 6.37452C11.1559 9.01085 9.0111 11.1552 6.37474 11.1552Z" fill="white"/>
</svg>
