<svg width="105" height="80" viewBox="0 0 105 80" fill="none" xmlns="http://www.w3.org/2000/svg">
<path fill-rule="evenodd" clip-rule="evenodd" d="M14.1914 43.6288L18.2177 49.3151C17.8389 50.4491 17.1515 51.1161 16.927 52.8504C16.5623 55.5852 17.6846 58.4033 19.4522 59.9208C20.7148 61.0047 21.2479 60.7546 22.6087 61.505C22.6788 66.9913 25.4425 69.2091 29.7213 69.2758C30.5771 71.5604 30.6893 72.4275 32.2465 73.6115C34.0843 74.9956 35.0382 74.8622 37.3811 74.8288C38.3771 77.03 39.5134 79.2478 42.1228 79.8482C45.8685 80.6819 46.9487 77.8804 48.1832 76.3463C51.0451 76.8132 58.2419 81.1155 62.7873 77.13C63.8535 76.1795 65.2704 74.7621 65.6772 73.3447C70.3769 73.1446 71.7657 72.0607 72.8038 66.8245C74.824 66.4577 76.0024 66.2909 77.237 64.8568C79.1168 62.689 78.3172 62.7223 79.3413 59.9208C84.8125 59.7707 86.9589 55.3851 85.3035 49.582L88.2636 46.9139C89.2176 45.9633 89.9751 44.5793 90.9571 43.8789C93.342 47.8644 93.2298 50.1489 98.2802 46.5303C101.619 44.129 105 42.6282 105 39.4265C104.986 37.3421 101.745 31.539 100.833 29.5546C99.5708 26.8364 87.9129 1.90642 87.1974 1.05596C84.9949 -1.59546 81.7402 1.65628 78.8082 3.82411C77.4614 4.82465 75.9323 5.44165 75.2589 7.12588C74.2067 9.82733 75.7499 11.0446 76.1988 12.929C69.2125 14.6132 66.4628 10.3609 56.7268 10.7778C52.7005 10.9446 45.8965 11.3948 42.2631 13.3792C40.7901 14.1963 40.4253 15.3469 39.4012 16.6143C34.7997 16.2975 31.8256 15.0301 28.9497 12.3954C29.6091 10.5777 30.7735 9.19365 29.567 6.70899C28.9778 5.50835 23.5206 1.85639 22.0896 0.855856C17.909 -2.07905 16.6605 3.25714 15.3277 5.99194L6.3072 24.9854C4.76403 28.3873 -0.230232 37.5588 0.00825793 39.9101C0.302863 42.7283 3.83813 44.4292 6.79821 46.6137C11.8907 50.3824 12.059 47.164 14.1914 43.6288ZM32.8918 28.2038C33.5652 26.6864 34.2105 25.5524 34.9681 24.2517C35.5433 23.2178 36.89 21.2168 37.2408 20.1662C29.4969 19.149 30.1281 17.1312 27.2102 15.9473C26.4386 17.3814 25.5407 19.4658 24.8393 21.0333L19.8871 31.4556C18.849 33.7568 17.6285 36.0247 16.6324 38.2926C16.3098 38.9929 16.1695 39.1764 15.9731 39.9601L19.0173 44.3958C21.2058 47.4808 19.9432 46.0801 22.0756 44.6126C25.8213 43.2286 27.5048 44.9795 29.7213 48.0478C30.9558 46.3969 30.9138 45.5965 32.5271 44.8794C34.3508 44.079 36.5814 44.3792 38.1386 45.7299C40.0325 47.3808 40.8041 49.3151 40.8462 52.1333C45.0408 53.9176 46.4437 55.235 46.4577 61.0047C48.7023 61.3883 50.3998 63.2059 51.1714 65.307C52.4059 68.6255 51.5642 70.5265 50.3717 72.8611C52.0833 73.9617 57.8351 75.746 60.2761 74.3952C61.0196 73.9783 62.0718 72.761 62.3243 72.1107C59.6308 70.5098 57.3862 69.3425 54.9031 67.8417C53.5984 67.058 51.957 66.7578 51.8167 65.0736C51.6063 62.4222 53.6545 62.739 55.0714 63.6061C57.6527 65.157 60.0937 66.4243 62.4786 67.9084C63.9236 68.7922 64.9898 69.5927 66.8837 69.4593C68.6794 69.3259 69.479 68.0418 69.5071 65.9074C67.7535 64.1064 57.0214 58.0198 56.4182 56.3856C55.9412 54.9348 56.4743 53.6174 57.8491 53.6341C59.238 53.6508 70.0963 62.0887 71.5693 62.7056C74.0664 63.7395 76.269 61.6884 75.9463 58.6035L60.7671 47.5642C60.6128 45.7299 60.4865 46.0467 61.1599 44.8961C63.3765 44.1124 65.6632 46.647 67.6833 48.0645L76.6898 54.5013C78.0647 55.4684 80.0988 57.2527 81.8665 55.1016C84.5179 51.8498 79.7341 48.348 76.9704 45.8633C69.7876 39.3765 61.7351 32.5061 53.6264 27.887C52.4059 27.1866 52.0833 26.5029 50.6243 27.0532C46.5419 28.5874 45.8965 33.6401 39.6116 36.1414C34.2947 38.2425 29.6792 35.4577 32.8918 28.2038ZM85.4158 32.0726C84.56 30.1882 83.8165 28.5874 82.9046 26.7864C81.9366 24.8854 78.4855 17.1146 77.8402 16.2641C69.5211 19.8327 68.034 13.1958 50.8908 15.1135C48.8145 15.3303 46.2473 15.7472 44.4095 16.4976C42.8663 17.1312 42.0527 19.1823 40.8041 21.2835C39.3451 23.7348 35.1364 29.8881 35.2487 32.8563C39.2609 33.9402 43.2732 29.5546 45.4476 26.2528C46.8225 24.1517 46.5138 24.3351 50.7365 22.901C52.6164 22.2506 55.0995 24.4352 56.6426 25.3523C64.611 30.0382 73.2387 37.9591 80.6179 44.2124C81.2211 44.7294 81.3755 44.8127 81.8524 45.4131C83.9568 47.9644 88.0391 42.2113 89.3298 40.2269C88.0391 37.4588 86.6784 34.8741 85.4158 32.0726ZM78.2751 8.91017L92.8651 39.8267C93.4683 41.0274 94.282 43.1952 95.0115 44.2291L101.661 39.4265C99.0377 32.923 92.5143 20.4497 89.1755 12.9123C88.46 11.3115 87.7165 9.89403 87.0712 8.44325C86.4118 6.95912 85.5981 5.15816 84.8827 4.05757L78.2751 8.91017ZM3.36115 39.4265L9.91261 44.2291C10.6141 43.2619 11.4277 41.4276 12.031 40.0769L26.7051 8.91017L20.0414 4.07425L5.40936 34.8574C4.8482 36.0747 3.69784 38.0758 3.36115 39.4265ZM34.0001 48.448C33.1023 48.9316 29.1181 55.7519 28.2483 57.186C27.7573 57.9698 27.3645 58.6368 26.9015 59.3372C24.0396 63.6061 28.0098 66.0574 29.553 65.1903C29.9317 64.9735 34.5332 57.3528 35.1645 56.3189C35.9221 55.0849 37.6897 53.0505 37.5775 51.4996C37.4512 49.7987 35.6836 47.5475 34.0001 48.448ZM39.78 56.3189C39.2048 56.6191 39.5555 56.1021 38.8541 56.9692L34.5753 63.923C33.8458 65.0736 32.499 66.5577 32.9479 68.4921C33.2566 69.8428 35.0242 71.7438 36.5393 70.8433C37.2548 70.4098 40.7199 64.4733 41.5757 63.1392C42.3052 61.9552 43.6099 60.7046 43.0768 58.6035C42.712 57.2361 41.1548 55.6018 39.78 56.3189ZM44.8023 65.0236C44.1009 65.4738 41.4494 69.8595 40.8742 70.86C39.3872 73.4281 41.7721 76.8966 43.9886 75.9294C44.7462 75.5959 47.2293 71.2602 47.9167 70.1596C49.6843 67.3415 46.6681 63.8396 44.8023 65.0236ZM23.5206 48.2979C22.4544 48.8983 22.8191 48.7148 21.7109 50.4991C21.276 51.1995 20.3781 52.4502 20.2098 53.2506C19.6907 55.5018 21.9073 58.1032 23.6468 57.3528C24.3342 57.0693 26.7753 53.1339 26.9717 52.4335C27.6591 49.9488 25.3163 47.2974 23.5206 48.2979Z" fill="white"/>
</svg>
