<svg width="57" height="82" viewBox="0 0 57 82" fill="none" xmlns="http://www.w3.org/2000/svg">
<path fill-rule="evenodd" clip-rule="evenodd" d="M10.6388 31.992C10.6388 31.2218 11.2591 30.6023 12.0302 30.6023H44.9866C45.7409 30.6023 46.3612 31.2218 46.3612 31.992C46.3612 32.7455 45.7409 33.365 44.9866 33.365H12.0302C11.2591 33.365 10.6388 32.7455 10.6388 31.992ZM12.0302 45.3365H44.9866C45.7409 45.3365 46.3612 44.717 46.3612 43.9636C46.3612 43.1934 45.7409 42.5739 44.9866 42.5739H12.0302C11.2591 42.5739 10.6388 43.1934 10.6388 43.9636C10.6388 44.717 11.2591 45.3365 12.0302 45.3365ZM56 53.8589V15.0142C56 14.244 55.3965 13.6245 54.6254 13.6245H42.9582V9.82378C42.9582 9.07032 42.3212 8.45082 41.5669 8.45082H35.9009C35.9009 8.43407 35.9009 8.40059 35.9009 8.38384C35.9009 4.31519 32.5818 1 28.5084 1C24.4349 1 21.1158 4.31519 21.1158 8.38384C21.1158 8.40059 21.1158 8.43407 21.1158 8.45082H15.4499C14.6788 8.45082 14.0585 9.07032 14.0585 9.82378V13.6245H2.39134C1.62024 13.6245 1 14.244 1 15.0142V79.6103C1 80.3637 1.62024 81 2.39134 81H34.4258H54.6254C55.3965 81 56 80.3637 56 79.6103V53.8589ZM16.8244 17.9778H40.1756V11.2135H34.3252C33.8894 11.2135 33.487 11.0126 33.2188 10.6777C32.9674 10.3428 32.8668 9.90749 32.9842 9.48891C33.0847 9.07032 33.135 8.71871 33.135 8.38384C33.135 5.83884 31.0564 3.76266 28.5084 3.76266C25.9604 3.76266 23.8817 5.83884 23.8817 8.38384C23.8817 8.71871 23.932 9.08707 24.0326 9.50565C24.1332 9.90749 24.0326 10.3428 23.7812 10.6777C23.513 11.0126 23.1106 11.2135 22.6916 11.2135H16.8244V17.9778ZM31.9616 78.2206H3.76593V16.3872H14.0585V19.3508C14.0585 20.121 14.6788 20.7405 15.4499 20.7405H41.5669C42.3212 20.7405 42.9415 20.121 42.9415 19.3508V16.3872H53.2341V52.2851V78.2206H31.9616ZM10.6388 56.6216C10.6388 55.8514 11.2591 55.2319 12.0302 55.2319H44.9866C45.7409 55.2319 46.3612 55.8514 46.3612 56.6216C46.3612 57.3751 45.7409 57.9946 44.9866 57.9946H12.0302C11.2591 57.9946 10.6388 57.3751 10.6388 56.6216ZM12.0302 69.9661H44.9866C45.7409 69.9661 46.3612 69.3466 46.3612 68.5931C46.3612 67.8229 45.7409 67.2034 44.9866 67.2034H12.0302C11.2591 67.2034 10.6388 67.8229 10.6388 68.5931C10.6388 69.3466 11.2591 69.9661 12.0302 69.9661Z" fill="white" stroke="white" stroke-width="0.8"/>
</svg>
