<svg width="93" height="82" viewBox="0 0 93 82" fill="none" xmlns="http://www.w3.org/2000/svg">
<path fill-rule="evenodd" clip-rule="evenodd" d="M45.1475 4.04187C44.5125 5.27156 44.1799 4.36547 42.0178 5.61134C36.2723 8.91209 37.2097 14.2677 36.605 15.012C35.0023 15.8695 23.8894 17.439 21.1074 17.9406L9.41997 20.0117C7.62074 20.3514 6.74381 20.4162 7.01596 22.6005C8.98151 23.8787 12.8521 22.2283 15.498 21.9695L9.02686 35.4637C6.75893 40.0103 4.65731 44.5246 2.40449 49.055C0.816938 52.2263 0.590145 53.1324 1.64851 57.2098C2.3289 59.8633 3.68966 62.4198 5.00506 63.9731C15.2712 76.0758 31.3282 70.1216 34.5033 56.6273C35.5163 52.3072 34.836 51.482 33.2635 48.3431C30.9654 43.7317 28.8789 39.2175 26.626 34.7518L20.0793 21.1281C43.2273 16.6624 34.6848 17.4714 40.1127 22.7623C41.4583 24.0567 43.0157 24.8495 45.1475 25.2702V77.9527H30.0128C28.7428 77.9366 26.3085 77.9527 27.0645 79.9267C27.6542 81.48 34.4277 80.8813 36.2723 80.8813C43.0157 80.8813 49.7439 80.8813 56.4721 80.8813C58.3469 80.8813 65.3926 81.4962 65.9823 79.9267C67.0255 77.1599 61.144 77.9689 58.1806 77.9689C54.7787 77.9689 51.3617 77.9689 47.9598 77.9527L47.8842 25.2702C52.798 24.2994 56.0638 20.6265 56.2906 14.7855L72.8617 11.6951C72.4081 13.3454 60.7811 36.6772 59.6623 39.1042C58.0747 42.5344 57.4548 42.7771 58.6039 47.3885C63.1398 65.5749 87.5579 65.3322 91.5948 46.806C92.5474 42.4373 91.7158 41.7254 90.1887 38.5703C87.1346 32.2277 82.9616 24.2509 80.1191 18.0053C79.1514 15.8534 77.836 13.0704 76.8079 11.1611C79.4387 9.93144 83.8083 10.4007 86.0308 8.92827C86.4239 5.1583 82.1753 7.05137 79.6201 7.50442C77.0347 7.97364 74.3888 8.4105 71.8033 8.89591C66.9953 9.802 60.509 11.3067 55.7917 11.6951C55.323 9.86672 53.9471 7.7633 52.919 6.92193C49.5322 4.15513 48.2017 5.28774 47.8993 4.04187C47.8842 2.19733 48.0354 2.24587 47.3096 1.0809L45.7372 1C44.9963 2.24587 45.1475 2.19733 45.1475 4.04187ZM61.8395 41.24C67.1162 41.3209 84.0955 41.4827 88.2685 41.1915C86.4542 36.839 83.8687 31.9202 81.6915 27.584C80.4971 25.1731 76.0066 15.2385 74.9482 14.1221C72.0301 19.5101 68.1444 28.1503 65.1053 34.2825C64.1528 36.208 62.4141 39.3146 61.8395 41.24ZM4.70267 50.7539L31.1468 50.8186C30.92 49.5404 19.2326 25.5938 17.9928 23.636L4.70267 50.7539ZM89.1606 44.2172H60.9323C61.265 51.6924 67.6152 57.9379 74.9633 57.9541C82.4324 57.9864 88.7221 51.7895 89.1606 44.2172ZM31.9633 53.7958H3.97693C3.70478 57.4849 6.60773 61.7402 8.18017 63.3259C10.3876 65.5264 13.5325 67.4842 17.7811 67.5327C27.004 67.646 32.7344 58.2615 31.9633 53.7958ZM44.951 7.66622C35.7734 10.0447 39.266 24.7201 48.368 22.1313C51.4977 21.2414 54.3705 17.6008 53.2818 12.9409C52.4956 9.52693 49.0635 6.59833 44.951 7.66622Z" fill="white" stroke="white" stroke-width="0.8"/>
</svg>
