<svg width="90" height="90" viewBox="0 0 90 90" fill="none" xmlns="http://www.w3.org/2000/svg">
<path fill-rule="evenodd" clip-rule="evenodd" d="M74.008 32.3027L61.7159 19.9993C60.9279 19.2225 59.8923 18.7948 58.8004 18.7948C57.6973 18.7948 56.6617 19.2225 55.885 19.9993L52.9921 22.8922C52.5418 23.3424 52.2266 23.8602 52.024 24.4118L38.5049 21.9917C38.5049 21.9917 38.5049 21.9917 38.4936 21.9917C32.4151 20.7872 26.4829 24.7383 25.2559 30.828L24.6256 33.9236C23.9389 37.3343 26.1565 40.6775 29.5785 41.3642C33.0004 42.0508 36.3324 39.8333 37.019 36.4225L37.4018 34.5202L43.469 35.0605L59.307 50.8985L62.1774 53.7689C62.7627 54.343 62.7627 55.2885 62.1774 55.8739C61.6033 56.4592 60.6578 56.4592 60.0724 55.8739L52.3842 48.1856C51.8439 47.6453 50.9771 47.6453 50.4481 48.1856C49.9078 48.7147 49.9078 49.5927 50.4481 50.1218L58.1363 57.81C58.4177 58.0914 58.5753 58.4741 58.5753 58.8681C58.5753 59.2621 58.4177 59.6448 58.1363 59.9262C57.551 60.5003 56.6054 60.5003 56.0313 59.9262L48.3319 52.238C47.8028 51.6977 46.936 51.6977 46.3957 52.238C45.8554 52.767 45.8554 53.6338 46.3957 54.1741L54.084 61.8623C54.6693 62.4477 54.6693 63.3932 54.084 63.9673C53.8025 64.2487 53.4311 64.4063 53.0371 64.4063C52.6319 64.4063 52.2604 64.2487 51.979 63.9673L44.2908 56.2791C43.7504 55.75 42.8837 55.75 42.3434 56.2791C41.8143 56.8194 41.8143 57.6862 42.3434 58.2152L50.0429 65.9147C50.6169 66.4888 50.6169 67.4343 50.0429 68.0197C49.4575 68.605 48.512 68.605 47.9266 68.0197L20.7196 40.8126L17.1287 37.2218C16.5884 36.6814 15.7216 36.6814 15.1926 37.2218C14.6523 37.7508 14.6523 38.6176 15.1926 39.1579L18.7834 42.7487L22.6894 46.666L20.5394 48.816C19.8303 49.5252 19.4363 50.4595 19.4363 51.4613C19.4363 52.4519 19.8303 53.3974 20.5394 54.0953L21.2374 54.8045C21.8565 55.4236 22.6557 55.7951 23.5112 55.8851C23.59 56.7406 23.9614 57.5286 24.5805 58.1477L25.2897 58.8568C25.9201 59.4872 26.7305 59.8474 27.5523 59.9262C27.6423 60.7817 28.0138 61.5809 28.6329 62.2L29.3308 62.8979C29.9499 63.517 30.7491 63.8885 31.6046 63.9786C31.6834 64.8341 32.0661 65.6333 32.6853 66.2411L33.3832 66.9503C34.1148 67.682 35.0716 68.0422 36.0285 68.0422C36.9853 68.0422 37.9421 67.682 38.6737 66.9503L40.8237 64.789L45.9905 69.9558C46.7897 70.755 47.8478 71.194 48.9847 71.194C50.1104 71.194 51.1798 70.755 51.979 69.9558C52.7332 69.2016 53.1609 68.211 53.2059 67.1417C54.2753 67.0966 55.2659 66.6689 56.0313 65.9147C56.808 65.1267 57.2133 64.1136 57.2583 63.0893C58.2826 63.0443 59.2957 62.639 60.0724 61.8623C60.8604 61.0856 61.2656 60.0725 61.2994 59.0482C62.3237 59.0032 63.3368 58.5979 64.1248 57.81C65.7682 56.1665 65.7682 53.4762 64.1248 51.8215L62.2224 49.9304L69.179 42.9739L74.008 38.1335C75.6177 36.5239 75.6177 33.9123 74.008 32.3027ZM22.4756 52.1592C22.0929 51.7765 22.0929 51.1461 22.4756 50.7521L24.5018 48.7372L26.6067 50.8422L24.5805 52.8684C24.1978 53.2511 23.5675 53.2511 23.1735 52.8684L22.4756 52.1592ZM26.5279 56.2116C26.134 55.8176 26.134 55.1872 26.5279 54.8045L28.5429 52.7783L30.6478 54.8945L28.6329 56.9095C28.2502 57.3034 27.6086 57.3034 27.2258 56.9095L26.5279 56.2116ZM30.569 60.2527C30.3889 60.0725 30.2764 59.8249 30.2764 59.5547C30.2764 59.2846 30.3889 59.0369 30.569 58.8568L32.5952 56.8307L34.7002 58.9356L32.6853 60.9618C32.2913 61.3445 31.6609 61.3445 31.2782 60.9618L30.569 60.2527ZM36.7264 65.0142C36.3436 65.3969 35.7133 65.3969 35.3193 65.0142L34.6214 64.305C34.2274 63.9223 34.2274 63.2919 34.6214 62.8979L36.6363 60.883L38.7525 62.988L36.7264 65.0142ZM60.2863 47.983L45.0562 32.7642C44.8311 32.539 44.5271 32.3927 44.212 32.3702L36.4224 31.6835C36.3774 31.6835 36.3436 31.6835 36.2986 31.6835C35.657 31.6835 35.0942 32.1338 34.9591 32.7754L34.34 35.871C33.946 37.8071 32.0549 39.0678 30.1188 38.6739C29.1845 38.4825 28.374 37.9422 27.8449 37.1542C27.3159 36.355 27.1245 35.3982 27.3159 34.4639L27.9463 31.3684C28.8693 26.7532 33.3719 23.7589 37.9871 24.6932C37.9983 24.6932 38.0096 24.6932 38.0209 24.6932L51.3486 27.0796L52.9921 28.7231L66.2635 42.0058L60.2863 47.983ZM72.0719 36.1974L68.2109 40.0584L54.9282 26.7869C54.6693 26.528 54.523 26.1791 54.523 25.8076C54.523 25.4362 54.6693 25.0872 54.9282 24.8283L57.8211 21.9354C58.08 21.6765 58.429 21.5414 58.8004 21.5414C59.1606 21.5414 59.5096 21.6765 59.7685 21.9354L72.0719 34.2388C72.3308 34.4977 72.4771 34.8466 72.4771 35.2181C72.4771 35.5896 72.3308 35.9385 72.0719 36.1974Z" fill="#FEFEFE" stroke="#FEFEFE" stroke-width="0.0762"/>
<path d="M68.7512 37.1317C69.5097 37.1317 70.1245 36.5169 70.1245 35.7584C70.1245 35 69.5097 34.3851 68.7512 34.3851C67.9928 34.3851 67.3779 35 67.3779 35.7584C67.3779 36.5169 67.9928 37.1317 68.7512 37.1317Z" fill="#FEFEFE" stroke="#FEFEFE" stroke-width="0.0762"/>
<path d="M45 88C68.7482 88 88 68.7482 88 45C88 21.2518 68.7482 2 45 2C21.2518 2 2 21.2518 2 45C2 68.7482 21.2518 88 45 88Z" stroke="#FEFEFE" stroke-width="3"/>
</svg>
