<svg width="90" height="90" viewBox="0 0 90 90" fill="none" xmlns="http://www.w3.org/2000/svg">
<path fill-rule="evenodd" clip-rule="evenodd" d="M66.0722 60.6465H47.3413C46.4858 60.6465 45.7879 61.3445 45.7879 62.2112C45.7879 63.078 46.4858 63.7759 47.3413 63.7759L66.0722 63.7308C66.939 63.7308 67.6369 63.078 67.6369 62.2112C67.6369 61.3445 66.939 60.6465 66.0722 60.6465ZM44.2233 26.2803L66.0722 26.2691C66.939 26.2691 67.6369 25.5712 67.6369 24.7157C67.6369 23.8489 66.939 23.151 66.0722 23.151H44.2233C43.3678 23.151 42.6699 23.8489 42.6699 24.7157C42.6699 25.5712 43.3678 26.2803 44.2233 26.2803ZM46.8573 51.7201C46.2494 51.101 45.2589 51.101 44.6397 51.7201L36.4225 61.1756V23.151H33.3044V61.2319L25.0309 51.7201C24.423 51.101 23.4212 51.101 22.8133 51.7201C22.2055 52.328 22.2055 53.3298 22.8133 53.9376L33.6534 66.4099C33.9798 66.7363 34.4076 66.8714 34.8353 66.8489C35.263 66.8714 35.6908 66.7363 36.0172 66.4099L46.8573 53.9376C47.4651 53.3298 47.4651 52.328 46.8573 51.7201ZM66.0722 32.5277H44.2233C43.3678 32.5277 42.6699 33.2256 42.6699 34.0924C42.6699 34.9479 43.3678 35.6345 44.2233 35.6345H66.0722C66.939 35.6345 67.6369 34.9479 67.6369 34.0924C67.6369 33.2256 66.939 32.5277 66.0722 32.5277ZM66.0722 41.8931H44.2233C43.3678 41.8931 42.6699 42.6023 42.6699 43.4578C42.6699 44.3246 43.3678 45 44.2233 45L66.0722 45.0225C66.939 45.0225 67.6369 44.3246 67.6369 43.4578C67.6369 42.6023 66.939 41.8931 66.0722 41.8931ZM66.0722 51.2698H53.5887C52.7219 51.2698 52.024 51.9678 52.024 52.8345C52.024 53.7013 52.7219 54.3654 53.5887 54.3654H66.0722C66.939 54.3654 67.6369 53.7013 67.6369 52.8345C67.6369 51.9678 66.939 51.2698 66.0722 51.2698Z" fill="#FEFEFE" stroke="#FEFEFE" stroke-width="0.0762"/>
<path d="M45 88C68.7482 88 88 68.7482 88 45C88 21.2518 68.7482 2 45 2C21.2518 2 2 21.2518 2 45C2 68.7482 21.2518 88 45 88Z" stroke="#FEFEFE" stroke-width="3"/>
</svg>
