<svg width="158" height="25" viewBox="0 0 158 25" fill="none" xmlns="http://www.w3.org/2000/svg">
<path fill-rule="evenodd" clip-rule="evenodd" d="M16.1106 4.13367C16.406 4.37448 16.8582 4.59212 17.3059 4.88386C20.4025 6.87511 22.0731 10.5705 21.2516 14.3909C19.2857 23.5599 5.98098 23.9628 3.72892 14.4604C2.68596 10.0657 4.95648 6.25458 8.86528 4.18461C8.91143 3.51315 8.44071 2.26746 8.11767 1.85069C7.46236 1.00325 6.75628 1.35519 5.93022 1.83679C4.61959 2.60551 5.19183 2.45269 5.38566 3.74469C5.47796 4.34669 4.45807 5.15708 4.10272 5.49513C3.29512 5.56459 3.12898 5.18487 2.41829 5.18487C2.04449 5.60627 1.22304 6.81028 1.12151 7.59752C1.50455 8.20878 1.78605 8.16711 2.16909 8.69965C2.18755 9.05159 1.9245 10.3667 1.73991 10.6214C1.45378 11.0151 0.650794 10.89 0.120083 11.2975C-0.0460527 11.9134 -0.0368229 13.1776 0.129313 13.7935C0.613875 14.1594 1.49532 14.1779 1.75375 14.4882C1.96603 14.7428 2.25216 16.058 2.266 16.4562C1.77221 16.8499 1.06152 17.3963 1.29226 18.0029C1.43994 18.3919 2.19216 19.5589 2.41368 19.809C3.27205 19.9062 3.39665 19.5218 4.22271 19.582C4.33347 19.6608 5.40412 20.6703 5.43642 20.7258C5.78715 21.2723 5.25183 21.8372 5.21029 22.5782C9.04064 25.5048 7.24546 22.254 9.6775 22.9394C11.4035 23.4302 10.6282 23.3978 11.2742 24.8889C11.9296 24.9816 13.6971 25.2038 14.0247 24.537C14.7769 23.0042 13.554 23.4765 15.6399 22.8421C17.1582 22.3837 16.7336 23.671 17.6705 23.7451C18.0766 23.7822 19.6179 22.7495 19.8302 22.5411C19.8764 21.7307 19.5995 21.5964 19.558 20.8277C19.6641 20.661 20.5732 19.6793 20.6932 19.582C21.2516 19.1143 21.7316 19.7302 22.5392 19.7256C22.9776 19.2625 23.7898 18.0817 23.8544 17.2666C23.5083 16.8545 22.8299 16.5952 22.793 16.0487C22.7653 15.669 23.1022 14.3816 23.3652 14.1872C23.859 13.8167 24.7774 14.1501 24.9343 13.3258C25.0543 12.7007 25.0127 11.5383 24.7866 11.0984C24.4036 10.765 23.8406 10.7187 23.1991 10.6168C22.3638 7.95409 22.7561 8.59314 23.4852 7.8059C23.979 7.27799 23.7067 6.93994 23.3652 6.39814C23.0745 5.93506 22.9499 5.50902 22.5392 5.14782C21.7454 4.99037 21.6485 5.34231 21.0486 5.36547C20.5178 5.38862 20.3702 5.01816 20.0471 4.70789C18.7596 3.46684 19.7425 3.80489 19.7425 2.28598C19.0319 1.92941 18.2935 1.12828 17.2413 1.2209C16.7106 1.83679 16.046 3.0408 16.1106 4.13367Z" fill="#FFCD11"/>
<path fill-rule="evenodd" clip-rule="evenodd" d="M7.31005 13.0342C7.20852 13.6547 7.65616 13.8168 7.75769 14.5901C7.96997 16.1738 8.09919 17.6094 9.82515 18.7578C12.5756 20.5824 17.0705 18.7902 17.4351 15.3218C17.8135 11.7514 14.7631 10.7975 14.1216 10.2835C13.1433 9.50085 14.5277 7.23638 13.2586 6.81498C12.9679 7.23638 13.0971 8.17181 13.0971 8.69972C13.0925 12.1173 14.4816 10.1075 16.2214 12.8397C17.472 14.8031 16.5029 17.0537 15.1 17.915C15.3999 17.2991 16.0091 16.8083 16.0968 15.808L14.7538 15.5116C15.2061 15.4144 15.8476 15.4005 16.1798 15.1921C15.9122 14.9884 15.6261 15.0347 15.3261 14.9513L14.92 14.7753C15.4184 14.6827 15.8291 14.7244 16.166 14.4558L14.5093 14.1594L15.9814 13.8955C15.5614 11.8718 13.674 11.3624 12.631 10.8438L12.5525 6.81035C11.0712 6.78257 11.2188 6.86129 11.2188 8.32926C11.2188 9.19522 11.0712 10.4502 11.2004 11.2559C11.4865 13.048 13.5078 12.5989 13.7017 14.6086C13.8955 16.5721 11.2465 16.9426 10.3236 15.8126C9.36828 14.641 8.90218 12.8119 7.31005 13.0342ZM11.1542 0.118837C10.9189 0.572656 10.785 1.23486 10.6235 1.74888L8.95294 2.17491C9.00371 3.00846 9.91284 5.99533 10.3282 6.40284C10.942 6.57418 14.117 6.51398 14.7723 6.39821C15.0077 5.78694 15.243 5.00897 15.4645 4.29119C15.5661 3.96241 15.6722 3.61046 15.783 3.26315C15.9168 2.83712 16.1198 2.50833 15.9445 2.15176L15.4184 2.03599L14.4354 5.44426L13.1756 5.50909C14.1678 4.61998 13.9139 5.736 14.7169 1.9619L14.2739 1.67942C14.0708 1.50808 14.0985 1.54976 14.0062 1.21634C13.8678 0.739365 13.8586 0.507824 13.6647 0.100313C13.0048 -0.0386107 11.8649 -0.0339799 11.1542 0.118837ZM11.9249 17.1278C10.822 16.6601 10.522 17.3593 8.9391 14.7522C8.71297 14.3771 8.25148 13.8909 8.20533 13.7982C8.21918 14.479 8.91602 15.808 9.24829 16.2757C9.86669 17.1463 10.5589 17.5816 11.9249 17.1278ZM12.8664 4.86541C13.2032 4.16616 12.7095 3.75865 12.2341 4.11059C12.0265 4.26341 11.7911 5.134 12.8664 4.86541Z" fill="#FCFCFC"/>
<path d="M44.32 15.04C44.0933 16.0133 43.6133 16.7733 42.88 17.32C42.1467 17.8533 41.26 18.12 40.22 18.12C39.5 18.12 38.8733 18.0067 38.34 17.78C37.8067 17.5533 37.36 17.24 37 16.84C36.64 16.44 36.3733 15.9733 36.2 15.44C36.0267 14.8933 35.94 14.3067 35.94 13.68V8.28C35.94 7.73333 36.0267 7.2 36.2 6.68C36.3733 6.16 36.6333 5.7 36.98 5.3C37.34 4.9 37.7867 4.58 38.32 4.34C38.8533 4.1 39.4867 3.98 40.22 3.98C41.34 3.98 42.2467 4.27333 42.94 4.86C43.6467 5.44667 44.1133 6.18 44.34 7.06L42.16 7.78C42.12 7.58 42.0533 7.38667 41.96 7.2C41.8667 7.01333 41.74 6.84667 41.58 6.7C41.42 6.54 41.2267 6.41333 41 6.32C40.7733 6.22667 40.5133 6.18 40.22 6.18C39.8733 6.18 39.5733 6.24 39.32 6.36C39.08 6.48 38.88 6.64 38.72 6.84C38.56 7.02667 38.44 7.24 38.36 7.48C38.28 7.72 38.24 7.96 38.24 8.2V13.74C38.24 14.0333 38.28 14.3133 38.36 14.58C38.44 14.8467 38.56 15.08 38.72 15.28C38.8933 15.48 39.1 15.64 39.34 15.76C39.5933 15.8667 39.8867 15.92 40.22 15.92C40.7133 15.92 41.1333 15.78 41.48 15.5C41.8267 15.22 42.0467 14.8333 42.14 14.34L44.32 15.04ZM50.9438 18V9.9H48.1238V18H45.9238V8.08H53.1638V18H50.9438ZM60.3383 15.1C60.6449 15.26 60.9449 15.42 61.2383 15.58C61.5449 15.74 61.8516 15.9067 62.1583 16.08C61.8516 16.7467 61.3983 17.2533 60.7983 17.6C60.1983 17.9333 59.5316 18.1 58.7983 18.1C57.3983 18.1 56.4049 17.6867 55.8183 16.86C55.2449 16.0333 54.9583 14.7667 54.9583 13.06C54.9583 12.3533 55.0116 11.6933 55.1183 11.08C55.2383 10.4667 55.4383 9.93333 55.7183 9.48C56.0116 9.01333 56.3983 8.64667 56.8783 8.38C57.3583 8.11333 57.9649 7.98 58.6983 7.98C59.3783 7.98 59.9516 8.09333 60.4183 8.32C60.8849 8.54667 61.2649 8.86 61.5583 9.26C61.8516 9.66 62.0583 10.1333 62.1783 10.68C62.3116 11.2267 62.3783 11.8267 62.3783 12.48V13.64H57.1983C57.1983 13.96 57.2183 14.2733 57.2583 14.58C57.2983 14.8733 57.3783 15.1333 57.4983 15.36C57.6183 15.5867 57.7783 15.7667 57.9783 15.9C58.1783 16.0333 58.4383 16.1 58.7583 16.1C59.0783 16.1 59.3716 16.0133 59.6383 15.84C59.9049 15.6533 60.1383 15.4067 60.3383 15.1ZM60.1183 12.1C60.1183 11.4733 60.0049 10.9733 59.7783 10.6C59.5649 10.2133 59.1916 10.02 58.6583 10.02C58.1249 10.02 57.7583 10.22 57.5583 10.62C57.3583 11.02 57.2449 11.5133 57.2183 12.1H60.1183ZM71.445 8.1V16H72.625V20.62H70.705V18H64.165V8.1H66.365V16H69.245V8.1H71.445ZM77.6692 9.94V18H75.5092V9.94H73.0092V8.1H80.2092V9.94H77.6692ZM85.7875 15.1C86.0942 15.26 86.3942 15.42 86.6875 15.58C86.9942 15.74 87.3008 15.9067 87.6075 16.08C87.3008 16.7467 86.8475 17.2533 86.2475 17.6C85.6475 17.9333 84.9808 18.1 84.2475 18.1C82.8475 18.1 81.8542 17.6867 81.2675 16.86C80.6942 16.0333 80.4075 14.7667 80.4075 13.06C80.4075 12.3533 80.4608 11.6933 80.5675 11.08C80.6875 10.4667 80.8875 9.93333 81.1675 9.48C81.4608 9.01333 81.8475 8.64667 82.3275 8.38C82.8075 8.11333 83.4142 7.98 84.1475 7.98C84.8275 7.98 85.4008 8.09333 85.8675 8.32C86.3342 8.54667 86.7142 8.86 87.0075 9.26C87.3008 9.66 87.5075 10.1333 87.6275 10.68C87.7608 11.2267 87.8275 11.8267 87.8275 12.48V13.64H82.6475C82.6475 13.96 82.6675 14.2733 82.7075 14.58C82.7475 14.8733 82.8275 15.1333 82.9475 15.36C83.0675 15.5867 83.2275 15.7667 83.4275 15.9C83.6275 16.0333 83.8875 16.1 84.2075 16.1C84.5275 16.1 84.8208 16.0133 85.0875 15.84C85.3542 15.6533 85.5875 15.4067 85.7875 15.1ZM85.5675 12.1C85.5675 11.4733 85.4542 10.9733 85.2275 10.6C85.0142 10.2133 84.6408 10.02 84.1075 10.02C83.5742 10.02 83.2075 10.22 83.0075 10.62C82.8075 11.02 82.6942 11.5133 82.6675 12.1H85.5675ZM94.5342 18L92.8742 14.68L91.2142 18H88.6942L91.6742 12.94C91.1942 12.14 90.7142 11.34 90.2342 10.54C89.7676 9.72667 89.2942 8.91333 88.8142 8.1H91.3542L92.8742 11.26H92.8942L94.4142 8.1H96.9142L94.0542 12.96L97.0542 18H94.5342ZM103.287 18V13.86H100.367V18H98.187V8.1H100.367V12.12H103.287V8.1H105.467V18H103.287ZM113.125 12.18L112.065 13.92L109.525 18H107.505V8.12H109.685V14.26H109.725C109.899 13.9667 110.065 13.68 110.225 13.4C110.399 13.1067 110.579 12.8133 110.765 12.52C111.192 11.7733 111.625 11.04 112.065 10.32C112.505 9.58667 112.939 8.85333 113.365 8.12H115.385V18H113.185V12.18H113.125ZM117.385 18V8.12H119.585V12.14H120.345C120.505 12.14 120.665 12.1267 120.825 12.1C120.985 12.0733 121.139 12.0133 121.285 11.92C121.445 11.8133 121.585 11.6667 121.705 11.48C121.839 11.28 121.945 11.02 122.025 10.7L122.705 8.12H124.845L124.065 11C123.932 11.48 123.745 11.8867 123.505 12.22C123.265 12.54 122.965 12.7533 122.605 12.86C123.045 12.9667 123.379 13.1933 123.605 13.54C123.832 13.8867 124.012 14.3067 124.145 14.8L125.025 18H122.805L122.185 15.46C122.012 14.82 121.785 14.4067 121.505 14.22C121.239 14.0333 120.905 13.94 120.505 13.94H119.585V18H117.385ZM129.912 7.96C130.765 7.96 131.438 8.13333 131.932 8.48C132.425 8.81333 132.798 9.23333 133.052 9.74C133.238 10.1133 133.365 10.6067 133.432 11.22C133.498 11.82 133.532 12.44 133.532 13.08C133.532 13.6133 133.498 14.1733 133.432 14.76C133.365 15.3467 133.258 15.82 133.112 16.18C132.965 16.5533 132.772 16.8667 132.532 17.12C132.305 17.36 132.038 17.56 131.732 17.72C131.438 17.8667 131.118 17.9733 130.772 18.04C130.425 18.1067 130.072 18.14 129.712 18.14C128.992 18.14 128.385 18.0067 127.892 17.74C127.412 17.4733 127.038 17.12 126.772 16.68C126.532 16.2933 126.358 15.7933 126.252 15.18C126.158 14.5667 126.112 13.8733 126.112 13.1C126.112 12.5 126.138 11.92 126.192 11.36C126.258 10.7867 126.365 10.3267 126.512 9.98C126.778 9.35333 127.192 8.86 127.752 8.5C128.312 8.14 129.032 7.96 129.912 7.96ZM129.872 10C129.578 10 129.312 10.0733 129.072 10.22C128.832 10.3667 128.658 10.5933 128.552 10.9C128.458 11.14 128.392 11.46 128.352 11.86C128.325 12.2467 128.312 12.6933 128.312 13.2C128.312 13.5867 128.318 13.9533 128.332 14.3C128.358 14.6467 128.418 14.9467 128.512 15.2C128.738 15.8 129.172 16.1 129.812 16.1C130.118 16.1 130.398 16.0267 130.652 15.88C130.905 15.72 131.085 15.4133 131.192 14.96C131.245 14.7733 131.278 14.5 131.292 14.14C131.318 13.78 131.332 13.3733 131.332 12.92C131.332 12.52 131.318 12.1533 131.292 11.82C131.265 11.4733 131.212 11.1867 131.132 10.96C130.905 10.32 130.485 10 129.872 10ZM139.056 18.14C138.296 18.1 137.636 17.9533 137.076 17.7C136.529 17.4467 136.103 17.0867 135.796 16.62C135.529 16.22 135.343 15.74 135.236 15.18C135.143 14.6067 135.096 13.96 135.096 13.24C135.096 12.64 135.123 12.0733 135.176 11.54C135.243 11.0067 135.363 10.5467 135.536 10.16C135.803 9.52 136.243 9.00667 136.856 8.62C137.483 8.23333 138.216 8.02667 139.056 8V3.84H141.196C141.196 4.53333 141.196 5.22667 141.196 5.92C141.209 6.6 141.216 7.29333 141.216 8C142.083 8.02667 142.796 8.21333 143.356 8.56C143.929 8.89333 144.356 9.34667 144.636 9.92C144.849 10.3467 144.989 10.8333 145.056 11.38C145.136 11.9133 145.176 12.4867 145.176 13.1C145.176 13.86 145.116 14.5333 144.996 15.12C144.876 15.6933 144.676 16.1867 144.396 16.6C144.049 17.1067 143.603 17.48 143.056 17.72C142.509 17.9467 141.896 18.0867 141.216 18.14V21.88H139.056V18.14ZM139.056 10.04C138.709 10.08 138.403 10.1867 138.136 10.36C137.869 10.52 137.669 10.7667 137.536 11.1C137.443 11.3267 137.376 11.6267 137.336 12C137.309 12.3733 137.296 12.7933 137.296 13.26C137.296 13.6467 137.309 14.0067 137.336 14.34C137.376 14.6733 137.443 14.9533 137.536 15.18C137.803 15.7933 138.309 16.1133 139.056 16.14V10.04ZM141.196 16.14C142.009 16.1 142.536 15.72 142.776 15C142.856 14.7733 142.903 14.5133 142.916 14.22C142.943 13.9133 142.956 13.5867 142.956 13.24C142.956 12.76 142.943 12.3333 142.916 11.96C142.903 11.5733 142.849 11.2667 142.756 11.04C142.636 10.6933 142.436 10.4467 142.156 10.3C141.889 10.1533 141.569 10.0667 141.196 10.04V16.14ZM150.697 18.14C149.937 18.1 149.277 17.9533 148.717 17.7C148.17 17.4467 147.743 17.0867 147.437 16.62C147.17 16.22 146.983 15.74 146.877 15.18C146.783 14.6067 146.737 13.96 146.737 13.24C146.737 12.64 146.763 12.0733 146.817 11.54C146.883 11.0067 147.003 10.5467 147.177 10.16C147.443 9.52 147.883 9.00667 148.497 8.62C149.123 8.23333 149.857 8.02667 150.697 8V3.84H152.837C152.837 4.53333 152.837 5.22667 152.837 5.92C152.85 6.6 152.857 7.29333 152.857 8C153.723 8.02667 154.437 8.21333 154.997 8.56C155.57 8.89333 155.997 9.34667 156.277 9.92C156.49 10.3467 156.63 10.8333 156.697 11.38C156.777 11.9133 156.817 12.4867 156.817 13.1C156.817 13.86 156.757 14.5333 156.637 15.12C156.517 15.6933 156.317 16.1867 156.037 16.6C155.69 17.1067 155.243 17.48 154.697 17.72C154.15 17.9467 153.537 18.0867 152.857 18.14V21.88H150.697V18.14ZM150.697 10.04C150.35 10.08 150.043 10.1867 149.777 10.36C149.51 10.52 149.31 10.7667 149.177 11.1C149.083 11.3267 149.017 11.6267 148.977 12C148.95 12.3733 148.937 12.7933 148.937 13.26C148.937 13.6467 148.95 14.0067 148.977 14.34C149.017 14.6733 149.083 14.9533 149.177 15.18C149.443 15.7933 149.95 16.1133 150.697 16.14V10.04ZM152.837 16.14C153.65 16.1 154.177 15.72 154.417 15C154.497 14.7733 154.543 14.5133 154.557 14.22C154.583 13.9133 154.597 13.5867 154.597 13.24C154.597 12.76 154.583 12.3333 154.557 11.96C154.543 11.5733 154.49 11.2667 154.397 11.04C154.277 10.6933 154.077 10.4467 153.797 10.3C153.53 10.1533 153.21 10.0667 152.837 10.04V16.14Z" fill="white"/>
</svg>
